<?xml version="1.0" standalone="no"?>
<!DOCTYPE svg PUBLIC "-//W3C//DTD SVG 20010904//EN"
 "http://www.w3.org/TR/2001/REC-SVG-20010904/DTD/svg10.dtd">
<svg version="1.0" xmlns="http://www.w3.org/2000/svg"
 width="320.000000pt" height="320.000000pt" viewBox="0 0 320.000000 320.000000"
 preserveAspectRatio="xMidYMid meet">

<g transform="translate(0.000000,320.000000) scale(0.100000,-0.100000)"
fill="#000000" stroke="none">
<path d="M0 1600 l0 -1600 1600 0 1600 0 0 1600 0 1600 -1600 0 -1600 0 0
-1600z m791 714 c90 -46 122 -172 65 -256 -36 -53 -70 -72 -139 -75 -51 -3
-69 0 -102 19 -78 46 -108 153 -65 238 44 86 152 119 241 74z m1930 -5 c78
-39 110 -149 69 -233 -53 -111 -214 -131 -293 -37 -53 64 -59 146 -14 211 58
86 144 107 238 59z m91 -796 c22 -20 30 -56 18 -87 -19 -50 -279 -160 -492
-208 -90 -20 -129 -23 -308 -22 -197 0 -209 1 -324 32 -71 19 -161 52 -222 81
-85 42 -104 55 -113 81 -12 37 -1 72 31 94 32 22 51 20 111 -13 137 -77 328
-121 521 -121 211 0 385 39 599 135 123 55 145 58 179 28z"/>
</g>
</svg>
